<svg xmlns="http://www.w3.org/2000/svg" viewBox="0 0 900 620"><rect width="900" height="620" rx="40" fill="#EFF9FD"/><rect x="70" y="78" width="760" height="455" rx="30" fill="#fff" stroke="#E4E8EE" stroke-width="4"/><rect x="105" y="120" width="250" height="160" rx="22" fill="#C9E9F7"/><rect x="390" y="120" width="400" height="36" rx="18" fill="#DCCCF7"/><rect x="390" y="178" width="320" height="20" rx="10" fill="#EEF1F5"/><rect x="390" y="218" width="285" height="20" rx="10" fill="#EEF1F5"/><rect x="160" y="365" width="550" height="20" rx="10" fill="#DDF0DF"/><rect x="195" y="386" width="475" height="105" rx="26" fill="#FFF0E7"/><circle cx="242" cy="302" r="44" fill="#FFD7C5"/><path d="M201 298c3-39 28-64 53-64 27 0 47 24 50 59-33-10-66-9-103 5Z" fill="#6B5648"/><circle cx="227" cy="304" r="5"/><circle cx="258" cy="304" r="5"/><path d="M228 329c11 8 21 8 32 0" fill="none" stroke="#24324B" stroke-width="4"/><rect x="205" y="348" width="74" height="78" rx="24" fill="#BFE8C2"/><circle cx="548" cy="337" r="42" fill="#E8C19E"/><path d="M507 333c4-37 28-61 50-61 27 0 48 21 51 58-31-11-63-9-101 3Z" fill="#7C5C4B"/><circle cx="534" cy="339" r="5"/><circle cx="562" cy="339" r="5"/><path d="M535 363c10 7 20 7 30 0" fill="none" stroke="#24324B" stroke-width="4"/><rect x="510" y="382" width="78" height="67" rx="24" fill="#DCCCF7"/><text x="105" y="575" font-family="Arial,sans-serif" font-size="21" font-weight="700" fill="#24324B">A bright, calm and playful learning space</text></svg>
